<?xml version="1.0" standalone="no"?>
<!DOCTYPE svg PUBLIC "-//W3C//DTD SVG 20010904//EN"
 "http://www.w3.org/TR/2001/REC-SVG-20010904/DTD/svg10.dtd">
<svg version="1.0" xmlns="http://www.w3.org/2000/svg"
 width="512.000000pt" height="512.000000pt" viewBox="0 0 512.000000 512.000000"
 preserveAspectRatio="xMidYMid meet">
<metadata>
Created by potrace 1.16, written by Peter Selinger 2001-2019
</metadata>
<g transform="translate(0.000000,512.000000) scale(0.100000,-0.100000)"
fill="#d161ba" stroke="none">
<path d="M3173 4465 c-34 -24 -40 -77 -14 -121 20 -34 21 -42 12 -127 -6 -49
-13 -92 -15 -95 -3 -2 -20 2 -38 11 -18 8 -71 21 -118 27 -56 8 -92 19 -106
31 -12 11 -35 19 -55 19 -19 0 -39 4 -45 10 -15 15 -502 25 -537 11 -15 -6
-32 -22 -38 -35 -10 -21 -21 -26 -68 -31 -31 -3 -82 -12 -113 -19 l-58 -13 0
83 c0 60 4 85 15 94 20 16 19 74 -1 94 -22 23 -71 20 -84 -3 -18 -35 -12 -78
15 -99 23 -18 25 -27 25 -98 0 -78 -1 -79 -34 -106 -25 -20 -36 -38 -41 -69
-4 -24 -22 -61 -42 -88 -38 -49 -66 -107 -77 -157 -6 -26 -12 -31 -37 -32 -38
-1 -75 -25 -85 -54 -9 -31 -22 -38 -72 -38 -51 0 -76 -22 -92 -79 -9 -33 -15
-41 -34 -41 -35 0 -89 -41 -110 -83 -14 -29 -16 -49 -11 -83 8 -57 38 -90 100
-112 41 -15 51 -23 53 -44 5 -43 44 -71 108 -76 47 -4 61 -10 84 -35 21 -24
36 -31 69 -33 36 -1 46 -7 66 -37 13 -19 22 -37 20 -41 -3 -3 -2 -4 1 -2 3 3
25 -11 49 -29 57 -43 116 -55 272 -55 l126 0 -6 -28 c-4 -18 1 -36 13 -52 19
-25 22 -25 202 -31 l183 -5 -207 -2 c-199 -2 -207 -1 -213 18 -3 11 -12 20
-18 21 -7 0 -70 0 -142 -1 -118 -1 -135 -3 -182 -26 -61 -29 -119 -92 -135
-145 -9 -33 -13 -37 -33 -29 -13 5 -32 6 -44 3 -17 -4 -21 -1 -21 19 0 37 -45
94 -93 117 -50 24 -122 27 -170 8 -75 -32 -173 -195 -216 -361 -30 -113 -28
-143 9 -164 33 -19 39 -37 15 -46 -9 -3 -23 -23 -32 -43 -21 -51 -12 -209 21
-361 29 -134 55 -191 95 -215 l29 -17 -15 -47 c-21 -68 -13 -195 15 -254 12
-25 22 -54 22 -66 0 -11 11 -35 25 -54 13 -19 38 -55 55 -80 32 -49 72 -73
111 -67 33 5 34 24 1 44 -41 23 -58 67 -54 137 3 55 5 59 33 69 16 5 29 16 29
24 0 8 7 14 15 14 20 0 19 -17 -2 -29 -11 -7 -14 -14 -8 -18 6 -5 23 -34 39
-66 33 -66 86 -117 121 -117 33 0 39 15 16 37 -34 33 -100 145 -107 182 -4 20
-22 64 -41 98 -23 42 -32 69 -28 83 l7 21 34 -21 c20 -11 46 -20 59 -20 28 0
55 -34 48 -61 -7 -26 48 -130 67 -127 26 5 25 107 -2 165 -31 66 -106 140
-151 148 -34 7 -35 9 -30 40 3 18 1 41 -5 51 -8 15 -6 27 10 52 17 28 20 44
15 95 -7 69 -48 204 -78 255 -30 52 -17 125 29 166 32 28 92 134 92 164 0 6
10 12 23 12 12 0 31 3 42 6 20 5 20 0 20 -283 0 -281 1 -289 24 -340 27 -61
102 -135 164 -163 32 -15 65 -20 142 -20 l100 0 109 -165 c59 -91 120 -174
136 -185 58 -41 197 -38 249 6 16 13 75 96 131 184 l102 160 94 0 c107 0 145
12 209 64 57 47 100 133 116 231 8 49 13 166 13 300 l0 221 27 -4 c19 -3 31 2
41 17 15 21 16 20 43 -34 29 -60 124 -170 155 -180 28 -9 31 -30 10 -91 -47
-135 -63 -304 -34 -353 15 -26 15 -30 -9 -78 -18 -35 -34 -53 -51 -57 -40 -10
-141 -100 -171 -153 -26 -45 -59 -178 -48 -195 8 -14 33 -8 52 11 10 10 29 52
41 92 32 108 38 117 97 145 43 22 56 24 68 14 20 -16 19 -33 -4 -78 -27 -53
-81 -221 -81 -251 0 -14 -12 -42 -26 -63 -22 -31 -24 -40 -14 -53 32 -39 81 6
138 126 15 32 32 58 37 58 6 0 23 -6 40 -13 27 -11 29 -15 26 -62 -3 -54 -35
-113 -76 -140 -34 -22 -32 -44 3 -44 28 0 92 33 92 48 0 5 16 25 35 45 36 37
71 121 101 237 17 68 19 276 3 286 -7 4 2 11 22 18 44 14 70 62 106 192 22 80
27 121 28 214 0 104 -2 118 -22 147 -27 36 -28 43 -9 43 25 0 46 42 46 92 0
141 -150 357 -295 424 -127 60 -271 -4 -291 -128 -6 -34 -8 -36 -26 -27 -11 6
-33 9 -49 7 -25 -4 -30 0 -40 30 -15 45 -71 106 -128 140 -41 24 -59 28 -166
32 l-120 5 -3 36 -3 37 163 4 c145 4 168 7 210 27 49 24 101 75 120 117 7 15
20 24 33 24 12 0 40 16 62 35 35 30 49 35 90 35 63 0 91 20 99 71 5 30 11 39
26 39 32 0 78 29 98 63 48 78 6 184 -82 207 -33 10 -38 14 -38 41 0 36 -23 84
-45 93 -9 3 -32 6 -51 6 -29 0 -36 5 -48 34 -14 34 -54 56 -100 56 -18 0 -24
10 -35 48 -13 50 -58 127 -91 157 -15 13 -20 31 -20 67 0 36 -5 53 -20 65 -17
15 -20 30 -20 109 0 92 0 92 35 127 41 41 46 81 14 121 -23 29 -54 33 -86 11z
m52 -30 c0 -13 -8 -21 -22 -23 -17 -3 -23 2 -23 16 0 10 3 22 7 26 13 13 38 1
38 -19z m-465 -280 c0 -24 3 -25 57 -25 78 0 233 -21 233 -31 0 -5 -9 -9 -21
-9 -11 0 -17 -4 -14 -10 6 -10 -90 -5 -177 9 -28 5 -48 4 -48 -1 0 -5 -130 -8
-307 -8 -338 2 -461 -9 -535 -47 -34 -16 -36 -4 -5 25 37 35 89 51 208 62 166
17 175 19 194 40 17 19 31 20 217 20 l198 0 0 -25z m220 -135 c169 -17 267
-87 307 -218 16 -49 18 -99 18 -367 0 -349 1 -345 -78 -409 l-39 -31 -601 -3
c-677 -3 -657 -5 -721 70 -20 23 -40 61 -48 91 -16 67 -17 506 0 591 33 164
137 258 305 276 107 11 748 11 857 0z m445 -334 l35 -15 0 -213 c0 -202 -1
-216 -22 -258 -13 -25 -30 -46 -39 -48 -13 -2 -15 29 -15 273 0 151 1 275 3
275 2 0 19 -7 38 -14z m-1690 -271 c0 -285 -3 -305 -39 -253 -14 19 -16 62
-16 269 0 264 -2 252 45 258 6 1 10 -97 10 -274z m-108 78 c-4 -54 -7 -140 -7
-190 l0 -93 -31 0 c-55 0 -59 12 -59 191 0 181 3 188 69 189 l34 0 -6 -97z
m1951 30 l3 -63 -36 0 -35 0 0 66 0 65 33 -3 c32 -3 32 -3 35 -65z m-2118
-113 c0 -98 0 -100 -23 -100 -35 0 -79 51 -79 93 0 47 17 76 55 92 18 8 35 14
40 15 4 0 7 -45 7 -100z m2241 54 c30 -32 33 -95 5 -121 -10 -10 -16 -13 -13
-7 4 7 -3 14 -18 16 -13 3 -26 0 -29 -6 -2 -6 -5 14 -5 44 -1 30 -4 65 -7 78
-5 18 -2 22 18 22 14 0 35 -12 49 -26z m-1591 -722 c77 -5 792 -6 910 -1 68 3
109 -11 143 -49 14 -15 15 -24 8 -43 -18 -43 -40 -65 -55 -54 -73 54 -25 50
-588 53 -292 1 -518 -1 -518 -6 0 -15 182 -22 607 -22 l412 0 36 -31 c42 -37
40 -52 -13 -117 l-35 -42 -22 25 c-13 13 -34 27 -47 30 -12 3 -171 4 -353 3
-305 -3 -330 -4 -333 -20 -3 -17 17 -18 310 -18 317 0 369 -5 394 -37 17 -22
18 -161 3 -340 -13 -163 -22 -197 -59 -223 -28 -20 -43 -21 -367 -23 -307 -2
-341 0 -370 16 -61 33 -64 50 -87 398 -12 172 -18 213 -35 247 -25 48 -85 112
-106 112 -27 0 -16 -34 20 -63 59 -47 67 -73 76 -262 21 -406 28 -433 117
-477 47 -23 48 -23 403 -20 195 1 387 6 425 11 38 5 71 7 73 4 13 -11 -33 -35
-87 -44 -41 -7 -62 -16 -62 -25 0 -8 -4 -14 -10 -14 -5 0 -7 -7 -4 -15 5 -13
-50 -15 -462 -15 -435 0 -472 2 -509 19 -95 44 -122 108 -131 307 -7 156 9
512 27 595 12 54 66 124 113 145 19 9 45 12 66 8 19 -3 69 -9 110 -12z m1548
-31 c45 -23 145 -124 186 -186 44 -66 69 -140 56 -164 -14 -28 -94 -61 -145
-61 -55 0 -103 19 -156 61 -21 17 -39 26 -39 20 0 -20 69 -79 99 -86 43 -9 54
-30 12 -22 -107 22 -174 100 -207 243 -22 98 -2 168 58 197 43 21 95 21 136
-2z m-2122 -10 c49 -30 68 -81 61 -170 -8 -127 -64 -249 -124 -272 -92 -35
-233 23 -233 95 0 88 81 276 142 331 31 28 46 35 81 35 23 0 55 -8 73 -19z
m1581 -273 c-3 -7 -5 -2 -5 12 0 14 2 19 5 13 2 -7 2 -19 0 -25z m658 -225
c-13 -54 -50 -70 -87 -36 -33 29 -23 51 25 56 23 2 48 4 56 5 10 2 11 -5 6
-25z m-2393 -26 l58 -12 -20 -33 c-16 -26 -26 -32 -52 -32 -18 0 -38 4 -44 8
-18 12 -36 52 -30 68 6 17 13 17 88 1z m2520 -48 c5 -19 6 -59 3 -89 -10 -96
-28 -201 -34 -197 -56 30 -144 68 -170 73 -58 12 -32 -17 43 -47 83 -34 109
-55 100 -83 -13 -44 -24 -46 -122 -16 -51 16 -99 34 -107 40 -25 21 -14 135
26 256 10 31 11 31 72 31 66 0 108 15 141 52 25 28 39 22 48 -20z m-2549 -99
c25 0 57 4 71 10 23 8 28 6 42 -22 24 -46 54 -138 54 -165 0 -17 -6 -23 -22
-23 -37 0 -98 -20 -98 -32 0 -10 67 -5 113 8 14 4 17 -1 17 -30 0 -42 -8 -47
-110 -74 -41 -11 -82 -23 -91 -26 -13 -6 -15 -1 -12 21 2 15 -14 86 -36 157
-23 72 -44 159 -47 195 l-7 66 40 -42 c36 -39 45 -43 86 -43z m2331 -308 c9
-14 -6 -52 -20 -52 -18 0 -26 17 -19 40 6 20 29 27 39 12z m59 -42 c-3 -12 -8
-19 -11 -16 -5 6 5 36 12 36 2 0 2 -9 -1 -20z m-2265 -52 c6 -23 15 -34 31
-36 50 -8 -2 -57 -82 -77 -22 -6 -25 -3 -31 27 -4 18 -9 45 -12 60 -5 22 -1
29 22 42 45 24 62 20 72 -16z m2217 1 c30 -11 57 -24 60 -29 3 -5 0 -29 -6
-54 -14 -57 -30 -59 -113 -13 -70 38 -90 75 -60 108 20 22 31 21 119 -12z
m-1290 -69 c-41 -6 -46 -8 -27 -15 12 -4 22 -12 22 -19 0 -7 24 -12 63 -13
195 -6 217 -9 234 -33 9 -13 11 -20 5 -16 -7 4 -12 1 -12 -9 0 -25 -48 -102
-82 -130 -23 -20 -40 -25 -83 -25 -30 0 -65 5 -78 11 -20 9 -158 203 -174 246
-4 10 14 13 88 11 81 -1 87 -2 44 -8z m-910 -144 l0 -94 -43 -21 c-62 -31 -69
-28 -87 34 -16 54 -14 86 9 114 9 12 99 59 116 60 3 1 5 -41 5 -93z m135 74
c9 -17 8 -20 -8 -20 -10 0 -27 9 -37 20 -18 20 -17 20 8 20 16 0 30 -8 37 -20z
m2098 -46 c12 -8 22 -24 22 -36 0 -33 -23 -100 -36 -105 -17 -6 -164 58 -164
72 0 6 7 34 16 61 9 27 17 55 20 62 3 12 91 -21 142 -54z m-193 -144 c8 -14
-23 -82 -35 -75 -13 8 -13 28 2 60 12 26 23 32 33 15z m185 -105 c0 -14 -7
-28 -15 -32 -23 -8 -27 1 -16 31 13 33 31 34 31 1z m-2291 -24 c10 -18 6 -31
-10 -31 -3 0 -9 11 -11 25 -6 29 7 33 21 6z"/>
<path d="M2613 3854 c-3 -8 2 -23 11 -32 14 -15 18 -15 31 -1 9 9 13 23 9 32
-8 21 -43 22 -51 1z"/>
<path d="M2032 3729 c-46 -14 -108 -79 -124 -131 -17 -60 -17 -371 0 -420 18
-51 71 -95 124 -103 24 -3 278 -5 565 -3 509 3 522 4 549 24 67 50 69 57 69
267 0 129 -5 207 -14 237 -16 56 -74 114 -126 129 -50 14 -995 14 -1043 0z
m1058 -77 c62 -32 79 -84 86 -258 8 -169 1 -204 -47 -250 l-30 -29 -282 -8
c-155 -5 -392 -6 -526 -3 -276 6 -301 12 -334 79 -23 47 -33 223 -19 326 12
84 32 117 83 143 31 16 78 18 534 18 464 0 503 -1 535 -18z"/>
<path d="M2124 3611 c-136 -62 -137 -243 -2 -312 71 -36 162 -14 209 52 23 33
36 110 25 153 -14 58 -104 126 -166 126 -14 0 -44 -9 -66 -19z m133 -56 c27
-18 53 -71 53 -108 0 -27 -41 -94 -54 -89 -5 2 -12 -2 -17 -9 -6 -11 -12 -11
-31 -1 -13 7 -37 12 -53 10 -39 -3 -49 4 -69 46 -21 44 -20 81 1 117 34 57
111 72 170 34z"/>
<path d="M2845 3611 c-70 -32 -105 -86 -105 -162 0 -50 19 -87 64 -127 61 -54
148 -52 214 3 93 78 78 229 -28 283 -53 27 -92 28 -145 3z m115 -44 c33 -17
70 -74 70 -109 0 -65 -52 -118 -114 -118 -52 0 -84 16 -106 52 -62 102 46 228
150 175z"/>
<path d="M3652 3430 c0 -14 2 -19 5 -12 2 6 2 18 0 25 -3 6 -5 1 -5 -13z"/>
<path d="M2289 2371 l-29 -29 0 -131 c0 -71 4 -141 10 -156 18 -47 58 -55 290
-55 l212 0 29 29 29 29 0 147 c0 142 -1 147 -25 170 l-24 25 -231 0 -232 0
-29 -29z m352 -57 c-109 -58 -192 -118 -261 -188 -30 -31 -58 -56 -62 -56 -4
0 -8 57 -8 127 0 104 3 130 17 145 14 16 35 18 207 18 l191 0 -84 -46z m127
-255 c-7 -5 -51 -9 -98 -9 -84 0 -85 1 -53 16 17 9 60 44 95 79 l63 64 3 -71
c2 -50 -1 -74 -10 -79z"/>
<path d="M1950 2020 c0 -15 5 -20 18 -18 9 2 17 10 17 18 0 8 -8 16 -17 18
-13 2 -18 -3 -18 -18z"/>
<path d="M1950 1940 c0 -11 7 -20 15 -20 8 0 15 9 15 20 0 11 -7 20 -15 20 -8
0 -15 -9 -15 -20z"/>
<path d="M1950 1860 c0 -11 4 -20 9 -20 13 0 32 26 24 33 -13 14 -33 6 -33
-13z"/>
<path d="M3500 2561 c0 -15 6 -21 21 -21 25 0 22 33 -4 38 -12 2 -17 -3 -17
-17z"/>
<path d="M3645 2525 c-35 -34 -30 -101 9 -127 24 -17 77 -8 101 17 50 49 15
135 -55 135 -19 0 -40 -9 -55 -25z m73 -43 c5 -33 -15 -54 -39 -41 -22 11 -25
39 -7 57 19 19 43 10 46 -16z"/>
<path d="M2304 4423 c-82 -16 -76 -150 6 -167 60 -11 549 -7 573 6 53 28 64
92 22 133 l-24 25 -265 0 c-145 0 -270 2 -278 4 -7 2 -23 1 -34 -1z m67 -49
c20 -24 -1 -49 -42 -49 -25 0 -35 5 -37 18 -8 41 51 64 79 31z m64 6 c10 0 11
-9 3 -40 -14 -54 -35 -52 -40 5 -2 35 0 44 10 40 8 -3 20 -5 27 -5z m325 -15
c0 -25 -1 -25 -83 -25 -63 0 -91 -5 -120 -20 -20 -11 -46 -20 -58 -20 -19 0
-21 4 -14 37 4 21 9 41 11 45 3 5 63 8 135 8 l129 0 0 -25z m120 -6 c17 -31
-12 -71 -48 -67 -24 3 -27 8 -30 46 l-3 42 35 0 c25 0 38 -6 46 -21z"/>
<path d="M1623 2960 c1 -13 7 -20 17 -18 20 4 19 32 -2 36 -12 2 -16 -3 -15
-18z"/>
<path d="M3305 2851 c-8 -15 3 -31 21 -31 9 0 14 7 12 17 -4 20 -24 28 -33 14z"/>
<path d="M3743 2833 c-23 -8 -14 -23 65 -101 55 -54 88 -97 112 -144 18 -38
36 -68 40 -68 17 0 31 30 25 52 -14 43 -96 157 -147 203 -59 53 -78 64 -95 58z"/>
<path d="M1300 2806 c0 -15 24 -28 34 -19 13 14 5 33 -14 33 -11 0 -20 -6 -20
-14z"/>
<path d="M2005 1406 c-40 -17 -82 -67 -95 -114 -13 -48 -13 -273 0 -307 6 -15
19 -29 30 -32 29 -8 16 -19 -29 -27 -44 -7 -100 -61 -103 -99 -2 -40 4 -82 14
-94 7 -9 2 -14 -19 -19 -29 -7 -63 -31 -63 -46 0 -4 173 -8 385 -8 212 0 385
3 385 8 -1 21 -23 36 -70 43 -29 4 -54 10 -56 11 -1 2 2 22 8 44 10 34 8 47
-8 80 -23 47 -76 84 -120 84 -33 0 -45 12 -24 25 16 10 13 319 -4 358 -37 88
-144 131 -231 93z m134 -82 c31 -25 31 -27 31 -119 l0 -94 -52 -6 c-29 -4 -73
-5 -98 -3 l-45 3 -3 91 -3 91 36 32 c46 40 91 42 134 5z m0 -280 c30 -6 31 -9
31 -55 l0 -49 -90 0 -90 0 0 48 c0 27 3 52 7 55 8 9 100 9 142 1z m1 -244 l0
-70 -108 0 c-119 0 -138 7 -148 55 -4 22 0 38 16 58 21 26 24 27 131 27 l109
0 0 -70z"/>
<path d="M2912 1389 c-29 -15 -51 -36 -70 -68 -26 -45 -27 -51 -30 -216 l-2
-170 -35 -6 c-73 -12 -129 -104 -106 -171 6 -17 11 -32 11 -34 0 -1 -21 -6
-47 -10 -52 -7 -73 -19 -73 -40 0 -12 68 -14 405 -14 223 0 405 4 405 8 0 19
-41 44 -79 49 -34 5 -39 8 -30 20 7 7 13 34 13 58 1 49 -22 88 -71 120 l-31
20 -4 176 c-3 173 -3 176 -31 218 -50 76 -143 100 -225 60z m144 -83 c33 -33
34 -35 34 -120 l0 -87 -97 3 -98 3 -3 83 c-3 83 -3 83 32 118 46 46 86 46 132
0z m24 -318 l0 -49 -87 3 -88 3 0 45 0 45 60 5 c33 3 72 3 88 1 25 -3 27 -6
27 -53z m-80 -157 c0 -47 9 -73 22 -65 5 3 4 -3 -4 -15 -12 -19 -22 -21 -129
-21 -129 0 -136 3 -146 63 -4 27 -1 39 16 56 19 19 32 21 131 21 l110 0 0 -39z"/>
</g>
</svg>